<svg width="105" height="60" viewBox="0 0 105 60" fill="none" xmlns="http://www.w3.org/2000/svg">
<path d="M15.3409 19.8182V23.2273H1.22727V19.8182H15.3409ZM5.45455 46V16.2045C5.45455 14.7045 5.80682 13.4545 6.51136 12.4545C7.21591 11.4545 8.13068 10.7045 9.25568 10.2045C10.3807 9.70454 11.5682 9.45454 12.8182 9.45454C13.8068 9.45454 14.6136 9.53409 15.2386 9.69318C15.8636 9.85227 16.3295 10 16.6364 10.1364L15.4773 13.6136C15.2727 13.5455 14.9886 13.4602 14.625 13.358C14.2727 13.2557 13.8068 13.2045 13.2273 13.2045C11.8977 13.2045 10.9375 13.5398 10.3466 14.2102C9.76705 14.8807 9.47727 15.8636 9.47727 17.1591V46H5.45455ZM88.1463 46.5455C85.9645 46.5455 84.0384 45.9943 82.3679 44.892C80.6974 43.7784 79.3906 42.2102 78.4474 40.1875C77.5043 38.1534 77.0327 35.75 77.0327 32.9773C77.0327 30.2273 77.5043 27.8409 78.4474 25.8182C79.3906 23.7955 80.7031 22.233 82.3849 21.1307C84.0668 20.0284 86.0099 19.4773 88.2145 19.4773C89.919 19.4773 91.2656 19.7614 92.2543 20.3295C93.2543 20.8864 94.0156 21.5227 94.5384 22.2386C95.0724 22.9432 95.4872 23.5227 95.7827 23.9773H96.1236V11.0909H100.146V46H96.2599V41.9773H95.7827C95.4872 42.4545 95.0668 43.0568 94.5213 43.7841C93.9759 44.5 93.1974 45.142 92.1861 45.7102C91.1747 46.267 89.8281 46.5455 88.1463 46.5455ZM88.6918 42.9318C90.3054 42.9318 91.669 42.5114 92.7827 41.6705C93.8963 40.8182 94.7429 39.642 95.3224 38.142C95.902 36.6307 96.1918 34.8864 96.1918 32.9091C96.1918 30.9545 95.9077 29.2443 95.3395 27.7784C94.7713 26.3011 93.9304 25.1534 92.8168 24.3352C91.7031 23.5057 90.3281 23.0909 88.6918 23.0909C86.9872 23.0909 85.5668 23.5284 84.4304 24.4034C83.3054 25.267 82.4588 26.4432 81.8906 27.9318C81.3338 29.4091 81.0554 31.0682 81.0554 32.9091C81.0554 34.7727 81.3395 36.4659 81.9077 37.9886C82.4872 39.5 83.3395 40.7045 84.4645 41.6023C85.6009 42.4886 87.0099 42.9318 88.6918 42.9318Z" fill="#F95E07"/>
<path d="M31.6151 46.5455C29.2514 46.5455 27.1776 45.983 25.3935 44.858C23.6207 43.733 22.2344 42.1591 21.2344 40.1364C20.2457 38.1136 19.7514 35.75 19.7514 33.0455C19.7514 30.3182 20.2457 27.9375 21.2344 25.9034C22.2344 23.8693 23.6207 22.2898 25.3935 21.1648C27.1776 20.0398 29.2514 19.4773 31.6151 19.4773C33.9787 19.4773 36.0469 20.0398 37.8196 21.1648C39.6037 22.2898 40.9901 23.8693 41.9787 25.9034C42.9787 27.9375 43.4787 30.3182 43.4787 33.0455C43.4787 35.75 42.9787 38.1136 41.9787 40.1364C40.9901 42.1591 39.6037 43.733 37.8196 44.858C36.0469 45.983 33.9787 46.5455 31.6151 46.5455ZM31.6151 42.9318C33.4105 42.9318 34.8878 42.4716 36.0469 41.5511C37.206 40.6307 38.0639 39.4205 38.6207 37.9205C39.1776 36.4205 39.456 34.7955 39.456 33.0455C39.456 31.2955 39.1776 29.6648 38.6207 28.1534C38.0639 26.642 37.206 25.4205 36.0469 24.4886C34.8878 23.5568 33.4105 23.0909 31.6151 23.0909C29.8196 23.0909 28.3423 23.5568 27.1832 24.4886C26.0241 25.4205 25.1662 26.642 24.6094 28.1534C24.0526 29.6648 23.7741 31.2955 23.7741 33.0455C23.7741 34.7955 24.0526 36.4205 24.6094 37.9205C25.1662 39.4205 26.0241 40.6307 27.1832 41.5511C28.3423 42.4716 29.8196 42.9318 31.6151 42.9318ZM60.2557 46.5455C57.892 46.5455 55.8182 45.983 54.0341 44.858C52.2614 43.733 50.875 42.1591 49.875 40.1364C48.8864 38.1136 48.392 35.75 48.392 33.0455C48.392 30.3182 48.8864 27.9375 49.875 25.9034C50.875 23.8693 52.2614 22.2898 54.0341 21.1648C55.8182 20.0398 57.892 19.4773 60.2557 19.4773C62.6193 19.4773 64.6875 20.0398 66.4602 21.1648C68.2443 22.2898 69.6307 23.8693 70.6193 25.9034C71.6193 27.9375 72.1193 30.3182 72.1193 33.0455C72.1193 35.75 71.6193 38.1136 70.6193 40.1364C69.6307 42.1591 68.2443 43.733 66.4602 44.858C64.6875 45.983 62.6193 46.5455 60.2557 46.5455ZM60.2557 42.9318C62.0511 42.9318 63.5284 42.4716 64.6875 41.5511C65.8466 40.6307 66.7045 39.4205 67.2614 37.9205C67.8182 36.4205 68.0966 34.7955 68.0966 33.0455C68.0966 31.2955 67.8182 29.6648 67.2614 28.1534C66.7045 26.642 65.8466 25.4205 64.6875 24.4886C63.5284 23.5568 62.0511 23.0909 60.2557 23.0909C58.4602 23.0909 56.983 23.5568 55.8239 24.4886C54.6648 25.4205 53.8068 26.642 53.25 28.1534C52.6932 29.6648 52.4148 31.2955 52.4148 33.0455C52.4148 34.7955 52.6932 36.4205 53.25 37.9205C53.8068 39.4205 54.6648 40.6307 55.8239 41.5511C56.983 42.4716 58.4602 42.9318 60.2557 42.9318Z" fill="black"/>
<circle cx="35" cy="39" r="3" fill="black"/>
<circle cx="65" cy="39" r="3" fill="black"/>
<path d="M58 56C56 58 56.3808 57.5 55 57.5C52.5 58 53 57.6569 53 56C53 54.3431 54.1193 53 55.5 53C56.8808 53 58 54.3431 58 56Z" fill="#FF8144"/>
<path d="M29.5 51.5L32.5 55L36.5 57.5L41.5 59H46.5L51 58.5L55.5 57.5L59 55L62 51.5" stroke="black" stroke-width="1.5" stroke-linecap="round"/>
</svg>
